<svg width="120" height="21" viewBox="0 0 120 21" fill="none" xmlns="http://www.w3.org/2000/svg">
<g id="Layer_1" clip-path="url(#clip0_7_66)">
<g id="Group">
<path id="Vector" d="M5 3H3V5H5V3Z" fill="white"/>
<path id="Vector_2" d="M7 13H5V15H7V13Z" fill="white"/>
<path id="Vector_3" d="M12 6H10V8H12V6Z" fill="white"/>
<path id="Vector_4" d="M10 9H8V11H10V9Z" fill="white"/>
<path id="Vector_5" d="M18 9H16V11H18V9Z" fill="white"/>
<path id="Vector_6" d="M10 16H8V18H10V16Z" fill="white"/>
<path id="Vector_7" d="M23 3H21V5H23V3Z" fill="white"/>
<path id="Vector_8" d="M16 13H14V15H16V13Z" fill="white"/>
<path id="Vector_9" d="M21 6H19V8H21V6Z" fill="white"/>
<path id="Vector_10" d="M18 16H16V18H18V16Z" fill="white"/>
<path id="Vector_11" d="M7.99966 0H0V2H7.99966C8.55105 2 9 1.5512 9 1C9 0.448795 8.55105 0 7.99966 0Z" fill="white"/>
<path id="Vector_12" d="M9 3H6V5H9C9.55121 5 10 4.5512 10 4C10 3.4488 9.55121 3 9 3Z" fill="white"/>
<path id="Vector_13" d="M17 5H20V3H17C16.4488 3 16 3.4488 16 4C16 4.5512 16.4488 5 17 5Z" fill="white"/>
<path id="Vector_14" d="M15 8H18V6H15C14.4488 6 14 6.4488 14 7C14 7.5512 14.4488 8 15 8Z" fill="white"/>
<path id="Vector_15" d="M18 15H21V13H18C17.4488 13 17 13.4488 17 14C17 14.5512 17.4488 15 18 15Z" fill="white"/>
<path id="Vector_16" d="M20 18H23V16H20C19.4488 16 19 16.4488 19 17C19 17.5512 19.4488 18 20 18Z" fill="white"/>
<path id="Vector_17" d="M8 6H5V8H8C8.5512 8 9 7.5512 9 7C9 6.4488 8.5512 6 8 6Z" fill="white"/>
<path id="Vector_18" d="M11 13H8V15H11C11.5512 15 12 14.5512 12 14C12 13.4488 11.5512 13 11 13Z" fill="white"/>
<path id="Vector_19" d="M6 16H3V18H6C6.5512 18 7 17.5512 7 17C7 16.4488 6.5512 16 6 16Z" fill="white"/>
<path id="Vector_20" d="M18.0003 0H26V2H18.0003C17.4489 2 17 1.5512 17 1C17 0.448795 17.4489 0 18.0003 0Z" fill="white"/>
<path id="Vector_21" d="M7.99966 19H0V21H7.99966C8.55105 21 9 20.5512 9 20C9 19.4488 8.55105 19 7.99966 19Z" fill="white"/>
<path id="Vector_22" d="M18.0003 19H26V21H18.0003C17.4489 21 17 20.5512 17 20C17 19.4488 17.4489 19 18.0003 19Z" fill="white"/>
<path id="Vector_23" d="M15 10C15 10.5512 14.5512 11 14 11H12C11.4488 11 11 10.5512 11 10C11 9.44879 11.4488 9 12 9H14C14.5512 9 15 9.44879 15 10Z" fill="white"/>
</g>
<g id="Group_2">
<path id="Vector_24" d="M45.9936 6.07635L42.9402 17H41.0839L38.9889 10.3731L36.8938 17H35.0375L32 6.07635H34.3179L36.0787 12.9659L37.8235 7.27346C38.0146 6.42449 38.4221 6 39.0398 6C39.3486 6 39.5843 6.10994 39.7435 6.32982C39.9027 6.5497 40.0459 6.86424 40.1765 7.27346L41.9022 12.9659L43.6789 6.07635H46H45.9936Z" fill="white"/>
<path id="Vector_25" d="M53.97 12.9168H48.9459C48.9459 13.708 49.0691 14.287 49.3153 14.6538C49.5616 15.0205 50.0571 15.2024 50.8018 15.2024C51.2853 15.2024 51.6426 15.0478 51.8739 14.7386C52.1051 14.4294 52.2222 14.1324 52.2222 13.8474H53.988C53.988 14.9326 53.6997 15.7299 53.1201 16.2391C52.5405 16.7454 51.7778 17 50.8258 17C49.8739 17 49.1381 16.8636 48.6156 16.5877C47.5405 16.03 47 14.5477 47 12.1408C47 10.71 47.3063 9.66117 47.9219 8.99731C48.5345 8.33345 49.4715 8 50.7267 8C52.9099 8 54 9.22466 54 11.6709C54 11.9347 53.991 12.3499 53.97 12.9198V12.9168ZM48.991 11.5618H52.2192C52.2192 10.8919 52.0931 10.4038 51.8438 10.1007C51.5916 9.79758 51.2072 9.64298 50.6907 9.64298C50.1742 9.64298 49.7598 9.79758 49.4535 10.1068C49.1471 10.416 48.994 10.901 48.994 11.5618H48.991Z" fill="white"/>
<path id="Vector_26" d="M60.9884 17L59.2864 16.9841C58.5342 16.9841 57.9649 16.7494 57.5783 16.2831C57.1918 15.8168 57 15.2585 57 14.6082V5H58.9568V9.01586L61.2911 7.86757C62.1841 7.86757 62.8403 8.12133 63.2628 8.63204C63.6344 9.08882 63.8652 9.82791 63.955 10.8462C63.985 11.2712 64 11.7978 64 12.4227C64 15.4711 62.9961 16.9968 60.9884 16.9968V17ZM59.4542 15.2141H60.4161C61.5009 15.2141 62.0432 14.2847 62.0432 12.4259C62.0432 11.4806 61.9593 10.8208 61.7945 10.4496C61.6297 10.0785 61.2701 9.89136 60.7188 9.89136L58.9568 10.8937V14.4782C58.9568 14.9033 59.1216 15.1475 59.4542 15.2109V15.2141Z" fill="white"/>
<path id="Vector_27" d="M72 13H67V11H72V13Z" fill="white"/>
<path id="Vector_28" d="M83 17H80.3124L77.9836 13.1683L75.6876 17H73L76.7339 11.3601L73.2362 6H75.9058L77.9836 9.55186L80.0912 6H82.7459L79.2481 11.3601L82.997 17H83Z" fill="white"/>
<path id="Vector_29" d="M96.9844 11.4508L97 12.6412C96.9595 13.3918 96.8722 14.0254 96.732 14.5422C96.5917 15.0559 96.3206 15.5266 95.9155 15.948C95.2423 16.6493 94.2606 17 92.9704 17C91.4527 17 90.4118 16.7908 89.8477 16.3756C89.2836 15.9572 89 15.2036 89 14.1116V6H93.12C94.3105 6 95.2423 6.35067 95.9155 7.04894C96.4608 7.61493 96.7818 8.30705 96.8816 9.11913C96.9501 9.69743 96.9844 10.4726 96.9844 11.4539V11.4508ZM94.834 13.4225C94.887 13.0042 94.9151 12.3551 94.9151 11.4662C94.9151 10.5772 94.887 9.94044 94.834 9.54362C94.7811 9.14681 94.6564 8.82998 94.4694 8.59312C94.1141 8.14094 93.5968 7.91331 92.9236 7.91331H91.0631V14.0008C91.0631 14.413 91.1971 14.696 91.4651 14.8498C91.7331 15.0036 92.21 15.0805 92.9018 15.0805C93.5937 15.0805 94.1141 14.8529 94.4694 14.4007C94.6564 14.1639 94.7811 13.8378 94.834 13.4195V13.4225Z" fill="white"/>
<path id="Vector_30" d="M108 17H105.61L103.547 12.9211H102.063V17H100V8.36242C100 7.53803 100.184 6.9382 100.548 6.56292C100.915 6.18764 101.528 6 102.39 6H104.142C105.19 6 106.024 6.33221 106.643 6.99664C107.263 7.66107 107.571 8.50392 107.571 9.52209C107.571 10.2634 107.384 10.9063 107.014 11.4446C106.643 11.986 106.183 12.3582 105.638 12.5643L108 17ZM105.081 10.6572C105.364 10.3434 105.504 9.95274 105.504 9.4821C105.504 9.01147 105.368 8.63619 105.097 8.34704C104.823 8.05789 104.462 7.91331 104.005 7.91331H102.981C102.368 7.91331 102.06 8.2363 102.06 8.88535V11.1247H104.005C104.44 11.1247 104.798 10.9678 105.081 10.6541V10.6572Z" fill="white"/>
<path id="Vector_31" d="M117.942 10.4344L116.045 14.6044C115.768 15.161 115.424 15.4378 115.014 15.4378C114.604 15.4378 114.26 15.1457 113.983 14.5583L112.058 10.4344V17H110V6H112.03L115.008 12.3503L117.97 6H120V17H117.942V10.4344Z" fill="white"/>
</g>
</g>
<defs>
<clipPath id="clip0_7_66">
<rect width="120" height="21" fill="white"/>
</clipPath>
</defs>
</svg>
